<?xml version="1.0" standalone="no"?>
<!DOCTYPE svg PUBLIC "-//W3C//DTD SVG 20010904//EN"
 "http://www.w3.org/TR/2001/REC-SVG-20010904/DTD/svg10.dtd">
<svg version="1.0" xmlns="http://www.w3.org/2000/svg"
 width="851.000000pt" height="841.000000pt" viewBox="0 0 851.000000 841.000000"
 preserveAspectRatio="xMidYMid meet">

<g transform="translate(0.000000,841.000000) scale(0.100000,-0.100000)"
fill="#000000" stroke="none">
<path d="M3910 8259 c-703 -63 -1329 -280 -1905 -664 -737 -491 -1271 -1185
-1589 -2068 -232 -642 -291 -1360 -170 -2047 182 -1023 780 -1964 1656 -2603
684 -498 1496 -760 2353 -760 658 1 1292 155 1862 453 1150 601 1961 1736
2167 3035 42 258 55 735 28 985 -94 870 -464 1699 -1047 2344 -704 778 -1639
1235 -2710 1326 -140 11 -508 11 -645 -1z m1222 -1416 c123 -58 211 -166 237
-291 6 -31 11 -158 11 -302 l0 -250 618 0 c585 0 623 -1 696 -20 102 -26 177
-69 252 -146 70 -70 128 -177 144 -263 6 -29 10 -188 10 -352 l0 -299 -2841 0
-2841 0 4 328 c4 308 5 331 27 391 61 173 206 304 383 346 52 12 172 15 685
15 l622 0 3 288 3 287 31 66 c53 112 129 179 249 221 46 16 110 17 845 15
l795 -2 67 -32z m153 -2275 c97 -24 190 -92 243 -176 30 -47 76 -171 67 -180
-5 -5 -144 -21 -196 -21 -33 -1 -37 2 -48 40 -49 162 -278 198 -390 62 -59
-72 -75 -131 -75 -288 -1 -113 3 -152 18 -199 41 -125 123 -191 236 -191 103
1 190 61 220 151 l13 37 115 -7 c64 -3 117 -8 119 -10 2 -2 -6 -32 -17 -67
-42 -127 -122 -217 -238 -272 -65 -31 -71 -32 -208 -32 l-140 0 -76 37 c-129
64 -222 183 -266 340 -13 47 -17 100 -16 213 0 135 3 158 27 231 68 206 211
328 401 344 87 7 148 4 211 -12z m-2960 -20 c5 -13 120 -553 152 -715 10 -46
20 -83 24 -83 4 0 10 17 14 38 3 20 22 102 40 182 46 194 135 582 135 587 0 2
57 2 127 1 l126 -3 96 -402 c60 -251 98 -395 103 -384 4 11 18 75 32 143 98
468 126 606 131 626 5 21 9 22 125 22 76 0 120 -4 120 -10 0 -6 -23 -106 -51
-223 -38 -162 -169 -729 -204 -882 -4 -19 -12 -20 -140 -20 l-135 0 -9 30 c-5
17 -21 75 -35 130 -93 350 -118 448 -134 512 -9 40 -19 73 -22 73 -3 0 -43
-147 -90 -328 -46 -180 -90 -347 -97 -372 l-13 -45 -137 2 -138 2 -17 73 c-32
136 -148 632 -194 828 -25 107 -48 203 -51 213 -4 15 6 17 117 17 87 0 122 -3
125 -12z m2075 -545 c102 -307 185 -562 185 -566 0 -5 -56 -8 -125 -8 l-124 0
-37 123 -37 123 -200 3 -200 2 -15 -47 c-9 -27 -25 -83 -37 -125 l-23 -77
-124 -3 c-69 -2 -126 -2 -127 -1 -1 1 60 188 134 415 75 227 158 482 186 565
l49 153 155 0 156 0 184 -557z m2090 452 l0 -105 -245 0 -246 0 3 -121 3 -121
215 -1 215 -2 3 -97 3 -98 -218 -2 -218 -3 -3 -132 -3 -133 244 0 c134 0 246
-2 248 -4 2 -2 3 -51 1 -108 l-3 -103 -360 0 -359 0 0 568 0 567 360 0 360 0
0 -105z m-4554 -301 c-3 -7 -64 -43 -135 -81 -72 -37 -131 -70 -131 -73 0 -3
57 -38 126 -79 68 -40 129 -82 134 -92 10 -18 14 -209 5 -209 -16 0 -503 295
-522 316 -34 37 -32 104 5 143 23 25 269 165 457 259 l60 30 3 -101 c1 -55 1
-106 -2 -113z m4996 75 c134 -72 251 -140 261 -151 19 -22 24 -107 7 -137 -10
-19 -487 -311 -508 -311 -8 0 -12 26 -12 89 0 112 4 118 154 207 64 38 115 71
116 74 0 3 -48 30 -107 60 -58 30 -119 67 -134 82 -28 25 -29 29 -29 122 0 53
2 96 4 96 3 0 114 -59 248 -131z m168 -1544 c0 -212 -4 -364 -11 -397 -37
-178 -191 -335 -374 -383 -52 -13 -335 -15 -2447 -15 -1731 0 -2402 3 -2440
11 -196 42 -370 226 -398 420 -5 35 -10 209 -10 387 l0 322 2840 0 2840 0 0
-345z"/>
<path d="M3519 6517 c-64 -42 -69 -66 -69 -304 l0 -213 805 0 805 0 0 218 c0
242 -4 261 -72 302 -32 19 -52 20 -734 20 l-701 0 -34 -23z"/>
<path d="M4057 4320 c-14 -34 -127 -418 -127 -428 0 -9 39 -12 136 -12 124 0
135 1 130 18 -3 9 -24 80 -46 157 -63 214 -87 282 -93 265z"/>
</g>
</svg>
